<?xml version="1.0" encoding="utf-8"?>
<!-- Generator: Adobe Illustrator 18.1.1, SVG Export Plug-In . SVG Version: 6.00 Build 0)  -->
<svg version="1.1" id="Layer_1" xmlns="http://www.w3.org/2000/svg" xmlns:xlink="http://www.w3.org/1999/xlink" x="0px" y="0px"
	 viewBox="-255 347 100 100" enable-background="new -255 347 100 100" xml:space="preserve">
<g id="Layer_1_1_">
	<path d="M-206.8,414.5c-8.3,0-15-6.7-15-14.8c0-8.2,6.7-14.8,15-14.8s15,6.7,15,14.8C-191.8,407.8-198.5,414.5-206.8,414.5z
		 M-206.8,385.4c-7.9,0-14.4,6.4-14.4,14.2c0,7.8,6.4,14.2,14.4,14.2c7.9,0,14.4-6.4,14.4-14.2S-198.9,385.4-206.8,385.4z"/>
	<polygon points="-208.4,404.9 -212.2,399.8 -211.7,399.4 -208.4,403.8 -201.9,394.7 -201.4,395.1 	"/>
</g>
<g id="Guides" display="none">
</g>
</svg>
